# xmcd
#
# Track frame offsets: 
#        150
#        10474
#        23074
#        34833
#        49058
#        57910
#        67134
#        77616
#        90536
#        101555
#        112369
#        123673
#        134214
#        144968
#        154977
#        165750
#        178092
#        188872
#        201291
#        213585
#        223555
#        233817
#        244444
#        256382
#
# Disc length: 3590 seconds
#
# Revision: 0
# Processed by: cddbd v1.5.2PL0 Copyright (c) Steve Scherf et al.
# Submitted via: ExactAudioCopyFreeDBPlugin 1.0
#
DISCID=6a0e0418
DTITLE=Charlie Feathers - Can't Hardly Stand It
DYEAR=2009
DGENRE=Country
TTITLE0=Peepin' Eyes
TTITLE1=I've Been Deceived
TTITLE2=Defrost Your Heart
TTITLE3=A Wedding Gown Of White
TTITLE4=Tongue-Tied Jill
TTITLE5=Get With It
TTITLE6=Everybody's Lovin' My Baby
TTITLE7=Can't Hardly Stand It
TTITLE8=One Hand Loose
TTITLE9=Bottle To The Baby
TTITLE10=When You Decide
TTITLE11=Nobody's Woman
TTITLE12=Too Much Alike
TTITLE13=When You Come Around
TTITLE14=Why Don't You
TTITLE15=Jungle Fever
TTITLE16=One Hand Loose (Alternative Take)
TTITLE17=Can't Hardly Stand It (Alternative Take)
TTITLE18=Bottle To The Baby (Alternative Take)
TTITLE19=Bottle To The Baby (Alternative Take)
TTITLE20=Everybody's Lovin' My Baby (Alternative Take)
TTITLE21=Too Much Alike (Alternative Take)
TTITLE22=My My-Jody Chastain (Charlie Feathers On Guitar)
TTITLE23=Jody's Beat-Jody Chastain (Charlie Feathers On Guitar)
EXTD=
EXTT0=
EXTT1=
EXTT2=
EXTT3=
EXTT4=
EXTT5=
EXTT6=
EXTT7=
EXTT8=
EXTT9=
EXTT10=
EXTT11=
EXTT12=
EXTT13=
EXTT14=
EXTT15=
EXTT16=
EXTT17=
EXTT18=
EXTT19=
EXTT20=
EXTT21=
EXTT22=
EXTT23=
PLAYORDER=
